# xmcd
#
# Track frame offsets:
#	150
#	12548
#	23859
#	36325
#	51918
#	67760
#	84684
#	94333
#	109547
#	129052
#	130245
#
# Disc length: 1932 seconds
#
# Revision: 0
# Processed by: cddbd v1.5.2PL0 Copyright (c) Steve Scherf et al.
# Submitted via: EasyCDDAExtractor 15.3.0.1
#
DISCID=8b078a0b
DTITLE=The Counters - This Doesn't Mean We're Friends
DYEAR=2012
DGENRE=Polka
TTITLE0=When You Come Round
TTITLE1=Please Don't Say
TTITLE2=New Orleans
TTITLE3=Roses
TTITLE4=Border Line
TTITLE5=Give Me What You Can
TTITLE6=Death Won't Slow Me Down
TTITLE7=Haunted House
TTITLE8=Prairie Rose
TTITLE9=Alias Duped
TTITLE10=Cowboy Song
EXTD=
EXTT0=
EXTT1=
EXTT2=
EXTT3=
EXTT4=
EXTT5=
EXTT6=
EXTT7=
EXTT8=
EXTT9=
EXTT10=
PLAYORDER=
